<svg viewBox="0 0 100 100" fill="none" xmlns="http://www.w3.org/2000/svg">
  <path d="M 7.4,57.4 L 7.4,71.1 L 7.4,70.9 L 7.6,70.7 L 7.6,60.0 L 7.4,59.8 L 7.4,57.8 L 7.6,57.6 L 7.6,57.4 Z M 92.6,57.0 L 92.6,71.3 L 92.8,71.3 L 92.8,70.5 L 93.0,70.3 L 93.0,70.1 L 92.8,69.9 L 92.8,60.0 L 93.0,59.8 L 93.0,59.2 L 92.8,59.0 L 92.8,57.0 Z M 8.6,56.1 L 8.4,56.2 L 9.4,56.2 L 9.6,56.4 L 9.4,56.6 L 9.2,56.6 L 9.0,56.8 L 8.2,56.8 L 8.2,71.3 L 8.6,71.7 L 8.8,71.7 L 9.0,71.9 L 9.4,71.9 L 9.6,72.1 L 9.4,72.3 L 8.6,72.3 L 9.4,72.3 L 9.6,72.1 L 10.2,72.1 L 10.5,72.5 L 10.7,72.5 L 11.1,72.9 L 10.9,73.0 L 10.4,73.0 L 10.9,73.0 L 11.1,72.9 L 11.9,72.9 L 12.1,73.0 L 12.1,73.2 L 11.9,73.4 L 10.9,73.4 L 11.9,73.4 L 12.1,73.2 L 12.5,73.2 L 12.7,73.4 L 12.9,73.4 L 13.1,73.6 L 13.7,73.6 L 13.9,73.8 L 13.9,74.0 L 13.7,74.2 L 12.7,74.2 L 13.7,74.2 L 13.9,74.0 L 14.5,74.0 L 14.6,74.2 L 14.6,74.4 L 14.5,74.6 L 13.7,74.6 L 14.5,74.6 L 14.6,74.4 L 15.4,74.4 L 15.6,74.6 L 15.2,75.0 L 14.5,75.0 L 15.4,75.0 L 15.4,74.8 L 15.6,74.6 L 15.8,74.8 L 16.0,74.8 L 16.2,75.0 L 16.0,75.2 L 15.8,75.2 L 15.6,75.4 L 16.0,75.4 L 16.0,75.2 L 16.2,75.0 L 16.4,75.2 L 16.8,75.2 L 17.0,75.4 L 16.8,75.6 L 16.4,75.6 L 16.2,75.8 L 16.8,75.8 L 17.0,76.0 L 17.0,76.2 L 17.6,76.2 L 18.0,76.6 L 18.4,76.6 L 18.8,77.0 L 19.3,77.0 L 19.7,77.3 L 19.9,77.1 L 20.3,77.1 L 20.5,77.0 L 20.9,77.0 L 21.3,77.3 L 21.1,77.5 L 20.1,77.5 L 20.5,77.5 L 20.7,77.7 L 20.9,77.7 L 21.1,77.9 L 21.9,77.9 L 22.1,77.7 L 22.7,77.7 L 23.0,78.1 L 22.9,78.3 L 21.7,78.3 L 22.3,78.3 L 22.5,78.5 L 22.7,78.3 L 22.9,78.3 L 23.0,78.1 L 23.2,78.1 L 23.6,78.5 L 23.4,78.7 L 22.9,78.7 L 23.4,78.7 L 23.6,78.5 L 24.4,78.5 L 24.6,78.7 L 24.6,78.9 L 24.4,79.1 L 23.4,79.1 L 24.4,79.1 L 24.6,78.9 L 25.2,78.9 L 25.6,79.3 L 26.0,79.3 L 26.4,79.7 L 26.2,79.9 L 25.2,79.9 L 26.2,79.9 L 26.4,79.7 L 26.8,79.7 L 27.1,80.1 L 27.5,80.1 L 27.9,80.5 L 28.1,80.3 L 28.3,80.5 L 28.5,80.5 L 28.7,80.7 L 28.5,80.9 L 28.1,80.9 L 27.9,81.1 L 27.7,81.1 L 28.5,81.1 L 28.7,81.2 L 28.7,81.4 L 29.3,81.4 L 29.5,81.6 L 29.5,81.8 L 30.1,81.8 L 30.5,82.2 L 30.9,82.2 L 31.1,82.4 L 31.2,82.4 L 31.4,82.6 L 31.8,82.6 L 32.2,83.0 L 32.4,83.0 L 32.6,83.2 L 32.8,83.2 L 33.0,83.4 L 33.6,83.4 L 33.8,83.6 L 34.4,83.6 L 33.8,83.6 L 33.6,83.4 L 34.0,83.0 L 34.2,83.0 L 34.4,83.2 L 34.6,83.2 L 34.8,83.4 L 35.4,83.4 L 35.7,83.8 L 35.9,83.8 L 36.1,84.0 L 36.3,84.0 L 36.5,84.2 L 37.1,84.2 L 37.3,84.4 L 37.3,84.6 L 37.1,84.8 L 36.1,84.8 L 37.1,84.8 L 37.3,84.6 L 37.9,84.6 L 38.1,84.8 L 38.1,85.0 L 37.9,85.2 L 37.1,85.2 L 37.9,85.2 L 38.1,85.0 L 38.9,85.0 L 39.3,85.4 L 39.5,85.4 L 39.8,85.7 L 40.2,85.7 L 40.4,85.9 L 40.8,85.9 L 41.0,86.1 L 41.2,86.1 L 41.4,86.3 L 41.2,86.5 L 40.6,86.5 L 40.4,86.7 L 41.2,86.7 L 41.4,86.9 L 41.4,87.1 L 42.0,87.1 L 42.4,87.5 L 42.8,87.5 L 43.2,87.9 L 43.4,87.9 L 43.6,87.7 L 43.8,87.7 L 43.9,87.5 L 44.3,87.5 L 44.7,87.9 L 44.5,88.1 L 43.8,88.1 L 43.9,88.1 L 44.1,88.3 L 44.3,88.3 L 44.5,88.5 L 45.3,88.5 L 45.5,88.3 L 46.1,88.3 L 46.5,88.7 L 46.3,88.9 L 45.3,88.9 L 45.5,88.9 L 45.7,89.1 L 45.9,89.1 L 46.1,88.9 L 46.3,88.9 L 46.5,88.7 L 46.7,88.7 L 46.9,88.9 L 47.1,88.9 L 47.3,89.1 L 47.1,89.3 L 46.3,89.3 L 47.1,89.3 L 47.3,89.1 L 47.9,89.1 L 48.2,89.5 L 48.0,89.6 L 46.9,89.6 L 48.0,89.6 L 48.2,89.5 L 48.6,89.5 L 49.0,89.8 L 48.8,90.0 L 48.0,90.0 L 48.8,90.0 L 49.0,89.8 L 49.6,89.8 L 50.0,90.2 L 49.8,90.4 L 48.6,90.4 L 49.8,90.4 L 50.0,90.2 L 50.6,90.2 L 51.0,89.8 L 51.6,89.8 L 51.8,90.0 L 52.5,90.0 L 51.8,90.0 L 51.6,89.8 L 52.0,89.5 L 52.3,89.5 L 52.5,89.6 L 53.5,89.6 L 52.5,89.6 L 52.3,89.5 L 52.7,89.1 L 53.3,89.1 L 53.5,89.3 L 54.1,89.3 L 53.5,89.3 L 53.3,89.1 L 53.7,88.7 L 53.9,88.7 L 54.1,88.9 L 54.3,88.9 L 54.5,89.1 L 54.9,89.1 L 55.1,88.9 L 55.3,88.9 L 54.1,88.9 L 53.9,88.7 L 54.3,88.3 L 55.1,88.3 L 55.3,88.5 L 55.9,88.5 L 56.1,88.3 L 56.4,88.3 L 56.6,88.1 L 56.8,88.1 L 57.0,87.9 L 57.4,87.9 L 57.8,87.5 L 58.2,87.5 L 58.6,87.1 L 59.2,87.1 L 59.0,86.9 L 59.2,86.7 L 60.2,86.7 L 60.0,86.7 L 59.8,86.5 L 59.2,86.5 L 59.0,86.3 L 59.2,86.1 L 59.4,86.1 L 59.6,85.9 L 59.8,86.1 L 60.2,85.7 L 60.7,85.7 L 60.9,85.9 L 61.5,85.9 L 60.9,85.9 L 60.7,85.7 L 60.7,85.5 L 60.9,85.4 L 61.3,85.4 L 61.7,85.0 L 62.3,85.0 L 62.5,85.2 L 63.3,85.2 L 62.5,85.2 L 62.3,85.0 L 62.7,84.6 L 63.1,84.6 L 63.5,84.2 L 64.1,84.2 L 64.3,84.4 L 65.0,84.4 L 64.3,84.4 L 64.1,84.2 L 64.5,83.8 L 64.8,83.8 L 65.0,84.0 L 66.2,84.0 L 65.0,84.0 L 64.8,83.8 L 64.8,83.6 L 65.0,83.4 L 65.8,83.4 L 66.0,83.6 L 66.6,83.6 L 66.0,83.6 L 65.8,83.4 L 66.0,83.2 L 66.2,83.2 L 66.4,83.0 L 66.6,83.2 L 66.8,83.2 L 67.0,83.4 L 67.4,83.4 L 67.6,83.2 L 67.8,83.2 L 66.8,83.2 L 66.6,83.0 L 66.6,82.8 L 66.8,82.6 L 67.6,82.6 L 67.8,82.8 L 68.4,82.8 L 68.6,82.6 L 68.9,82.6 L 69.1,82.4 L 69.3,82.4 L 69.5,82.2 L 69.9,82.2 L 70.3,81.8 L 70.9,81.8 L 70.9,81.6 L 70.1,81.6 L 69.9,81.4 L 70.1,81.2 L 70.3,81.2 L 70.5,81.1 L 70.7,81.1 L 70.9,81.2 L 71.1,81.2 L 71.3,81.4 L 71.7,81.4 L 71.7,81.2 L 71.9,81.1 L 72.7,81.1 L 72.5,81.1 L 72.3,80.9 L 71.9,80.9 L 71.7,80.7 L 71.9,80.5 L 72.3,80.5 L 72.5,80.3 L 72.9,80.7 L 73.4,80.7 L 72.9,80.7 L 72.7,80.5 L 72.7,80.3 L 72.9,80.1 L 73.2,80.1 L 73.6,79.7 L 73.8,79.7 L 74.2,79.3 L 74.8,79.3 L 75.2,78.9 L 75.8,78.9 L 76.0,79.1 L 77.0,79.1 L 76.0,79.1 L 75.8,78.9 L 76.2,78.5 L 76.8,78.5 L 77.0,78.7 L 77.5,78.7 L 77.0,78.7 L 76.8,78.5 L 77.1,78.1 L 77.3,78.1 L 77.5,78.3 L 78.7,78.3 L 77.5,78.3 L 77.3,78.1 L 77.7,77.7 L 78.3,77.7 L 78.5,77.5 L 78.7,77.5 L 78.9,77.3 L 79.1,77.3 L 79.5,77.7 L 79.3,77.9 L 78.7,77.9 L 79.3,77.9 L 79.5,77.7 L 79.7,77.7 L 79.9,77.5 L 80.1,77.5 L 79.3,77.5 L 79.1,77.3 L 79.5,77.0 L 79.9,77.0 L 80.1,77.1 L 80.3,77.1 L 80.5,77.3 L 80.9,77.3 L 81.2,77.0 L 81.6,77.0 L 82.0,76.6 L 82.4,76.6 L 82.8,76.2 L 83.4,76.2 L 83.4,76.0 L 82.6,76.0 L 82.4,75.8 L 82.8,75.4 L 83.4,75.4 L 83.8,75.8 L 84.2,75.8 L 84.2,75.6 L 84.4,75.4 L 85.0,75.4 L 84.8,75.4 L 84.6,75.2 L 84.2,75.6 L 83.6,75.6 L 83.4,75.4 L 83.6,75.2 L 84.0,75.2 L 84.4,74.8 L 84.6,74.8 L 85.0,74.4 L 85.5,74.4 L 85.7,74.2 L 85.9,74.2 L 86.1,74.0 L 86.5,74.0 L 86.7,74.2 L 87.7,74.2 L 86.7,74.2 L 86.5,74.0 L 86.9,73.6 L 87.5,73.6 L 87.7,73.8 L 88.5,73.8 L 87.7,73.8 L 87.5,73.6 L 87.9,73.2 L 88.1,73.2 L 88.5,72.9 L 89.3,72.9 L 89.5,73.0 L 90.0,73.0 L 89.5,73.0 L 89.3,72.9 L 89.6,72.5 L 89.8,72.5 L 90.0,72.7 L 91.2,72.7 L 90.0,72.7 L 89.8,72.5 L 90.2,72.1 L 90.6,72.1 L 90.8,72.3 L 91.8,72.3 L 91.0,72.3 L 90.8,72.1 L 91.0,71.9 L 92.0,71.9 L 91.8,71.9 L 91.6,71.7 L 92.0,71.3 L 92.2,71.3 L 92.2,56.8 L 91.4,56.8 L 91.2,56.6 L 91.0,56.6 L 90.8,56.4 L 91.0,56.2 L 92.0,56.2 L 92.0,56.1 L 91.4,56.1 L 91.2,56.2 L 91.0,56.2 L 90.8,56.4 L 90.6,56.4 L 90.2,56.8 L 89.5,56.8 L 89.5,57.0 L 89.3,57.2 L 88.9,57.2 L 88.9,57.4 L 88.7,57.6 L 87.9,57.6 L 88.1,57.6 L 88.3,57.8 L 88.7,57.8 L 88.9,58.0 L 88.7,58.2 L 88.3,58.2 L 88.1,58.4 L 87.9,58.2 L 87.9,58.0 L 87.1,58.0 L 87.7,58.0 L 88.1,58.4 L 87.9,58.6 L 87.3,58.6 L 87.1,58.4 L 86.1,58.4 L 87.1,58.4 L 87.3,58.6 L 87.3,58.8 L 87.1,59.0 L 86.3,59.0 L 86.1,58.8 L 85.4,58.8 L 86.1,58.8 L 86.3,59.0 L 85.9,59.4 L 85.5,59.4 L 85.4,59.2 L 84.2,59.2 L 85.4,59.2 L 85.5,59.4 L 85.2,59.8 L 84.6,59.8 L 84.4,59.6 L 83.6,59.6 L 84.4,59.6 L 84.6,59.8 L 84.2,60.2 L 83.8,60.2 L 83.6,60.0 L 82.6,60.0 L 83.6,60.0 L 83.8,60.2 L 83.4,60.5 L 82.8,60.5 L 82.6,60.4 L 81.8,60.4 L 82.6,60.4 L 82.8,60.5 L 82.4,60.9 L 82.0,60.9 L 81.8,60.7 L 81.2,60.7 L 81.1,60.9 L 80.5,60.9 L 80.3,61.1 L 80.1,61.1 L 81.2,61.1 L 81.4,61.3 L 81.1,61.7 L 80.3,61.7 L 80.1,61.5 L 79.9,61.5 L 79.7,61.3 L 79.5,61.5 L 79.3,61.5 L 79.1,61.7 L 78.5,61.7 L 78.1,62.1 L 77.7,62.1 L 77.7,62.3 L 77.5,62.5 L 76.6,62.5 L 76.6,62.7 L 76.4,62.9 L 76.0,62.9 L 76.2,63.1 L 76.6,63.1 L 76.8,63.3 L 76.6,63.5 L 76.2,63.5 L 76.2,63.7 L 76.0,63.9 L 75.8,63.9 L 75.6,64.1 L 75.2,64.1 L 75.0,63.9 L 75.0,63.7 L 74.2,63.7 L 74.8,63.7 L 75.2,64.1 L 75.0,64.3 L 74.4,64.3 L 74.2,64.1 L 73.2,64.1 L 74.2,64.1 L 74.4,64.3 L 74.0,64.6 L 73.6,64.6 L 73.2,65.0 L 72.7,65.0 L 72.5,64.8 L 71.5,64.8 L 72.5,64.8 L 72.7,65.0 L 72.7,65.2 L 72.5,65.4 L 71.7,65.4 L 71.5,65.2 L 70.7,65.2 L 71.5,65.2 L 71.7,65.4 L 71.3,65.8 L 70.9,65.8 L 70.7,65.6 L 69.9,65.6 L 70.7,65.6 L 70.9,65.8 L 70.5,66.2 L 70.3,66.2 L 69.9,66.6 L 69.3,66.6 L 69.1,66.4 L 68.4,66.4 L 69.1,66.4 L 69.3,66.6 L 69.1,66.8 L 68.9,66.8 L 68.8,67.0 L 68.6,67.0 L 68.4,66.8 L 68.2,66.8 L 68.0,66.6 L 67.6,66.6 L 67.4,66.8 L 67.2,66.8 L 68.4,66.8 L 68.6,67.0 L 68.2,67.4 L 67.6,67.4 L 67.4,67.2 L 67.0,67.2 L 66.8,67.0 L 66.4,67.4 L 65.8,67.4 L 65.6,67.6 L 65.4,67.6 L 65.2,67.8 L 65.0,67.8 L 64.6,68.2 L 64.1,68.2 L 64.1,68.4 L 63.9,68.6 L 63.3,68.6 L 63.3,68.8 L 63.1,68.9 L 62.3,68.9 L 63.1,68.9 L 63.3,68.8 L 64.1,68.8 L 64.3,68.9 L 64.1,69.1 L 63.5,69.1 L 63.1,69.5 L 62.7,69.5 L 62.5,69.7 L 62.1,69.3 L 61.3,69.3 L 62.1,69.3 L 62.3,69.5 L 62.3,69.7 L 62.1,69.9 L 61.5,69.9 L 61.3,69.7 L 60.4,69.7 L 61.3,69.7 L 61.5,69.9 L 61.5,70.1 L 61.3,70.3 L 60.7,70.3 L 60.4,70.7 L 60.0,70.7 L 59.6,71.1 L 59.2,71.1 L 58.8,71.5 L 58.2,71.5 L 58.0,71.3 L 57.2,71.3 L 57.8,71.3 L 58.0,71.5 L 58.0,71.7 L 57.8,71.9 L 57.4,71.9 L 57.2,71.7 L 57.0,71.7 L 56.8,71.5 L 56.6,71.7 L 56.2,71.7 L 57.2,71.7 L 57.4,71.9 L 57.0,72.3 L 56.4,72.3 L 56.2,72.1 L 55.5,72.1 L 55.3,72.3 L 54.9,72.3 L 54.7,72.5 L 54.3,72.5 L 53.9,72.9 L 53.7,72.9 L 53.5,73.0 L 52.9,73.0 L 52.7,73.2 L 53.7,73.2 L 53.9,73.4 L 53.5,73.8 L 52.9,73.8 L 52.7,73.6 L 52.5,73.6 L 52.3,73.4 L 52.1,73.4 L 52.1,73.6 L 52.0,73.8 L 51.2,73.8 L 51.4,74.0 L 52.1,74.0 L 52.3,74.2 L 52.1,74.4 L 52.0,74.4 L 51.8,74.6 L 51.6,74.6 L 51.4,74.4 L 51.2,74.4 L 51.0,74.2 L 49.4,74.2 L 49.2,74.0 L 49.2,73.8 L 48.6,73.8 L 48.2,73.4 L 48.0,73.4 L 47.7,73.0 L 47.1,73.0 L 46.7,72.7 L 46.5,72.7 L 46.3,72.9 L 45.9,72.9 L 45.7,73.0 L 45.3,73.0 L 44.9,72.7 L 45.1,72.5 L 46.1,72.5 L 45.9,72.5 L 45.7,72.3 L 45.3,72.3 L 45.1,72.1 L 44.3,72.1 L 44.1,72.3 L 43.6,72.3 L 43.2,71.9 L 43.4,71.7 L 44.5,71.7 L 43.9,71.7 L 43.8,71.5 L 43.6,71.7 L 43.4,71.7 L 43.2,71.9 L 43.0,71.9 L 42.8,71.7 L 42.6,71.7 L 42.4,71.5 L 41.8,71.5 L 41.4,71.1 L 41.6,70.9 L 42.8,70.9 L 41.6,70.9 L 41.4,71.1 L 41.0,71.1 L 40.6,70.7 L 40.8,70.5 L 41.6,70.5 L 40.8,70.5 L 40.6,70.7 L 40.2,70.7 L 39.8,70.3 L 40.0,70.1 L 40.8,70.1 L 40.0,70.1 L 39.8,70.3 L 39.3,70.3 L 38.9,69.9 L 38.3,69.9 L 37.9,69.5 L 37.5,69.5 L 37.3,69.3 L 37.3,69.1 L 37.5,68.9 L 38.3,68.9 L 37.5,68.9 L 37.3,69.1 L 36.7,69.1 L 36.5,68.9 L 36.7,68.8 L 37.1,68.8 L 37.3,68.6 L 36.7,68.6 L 36.5,68.4 L 36.5,68.2 L 35.7,68.2 L 35.5,68.0 L 35.5,67.8 L 35.2,67.8 L 34.8,67.4 L 34.2,67.4 L 34.0,67.2 L 33.8,67.2 L 33.6,67.0 L 33.4,67.2 L 33.0,67.2 L 32.8,67.4 L 32.4,67.4 L 32.0,67.0 L 32.2,66.8 L 33.2,66.8 L 33.0,66.8 L 32.8,66.6 L 32.4,66.6 L 32.2,66.4 L 31.4,66.4 L 31.2,66.6 L 30.7,66.6 L 30.3,66.2 L 30.5,66.0 L 31.4,66.0 L 30.5,66.0 L 30.3,66.2 L 29.9,66.2 L 29.5,65.8 L 29.1,65.8 L 28.7,65.4 L 28.9,65.2 L 29.7,65.2 L 28.9,65.2 L 28.7,65.4 L 28.1,65.4 L 27.7,65.0 L 27.3,65.0 L 27.0,64.6 L 27.1,64.5 L 27.9,64.5 L 27.1,64.5 L 27.0,64.6 L 26.4,64.6 L 26.0,64.3 L 25.4,64.3 L 25.2,64.1 L 25.0,64.1 L 24.8,63.9 L 24.6,63.9 L 24.4,63.7 L 24.6,63.5 L 24.8,63.5 L 25.0,63.3 L 25.4,63.3 L 24.6,63.3 L 24.4,63.5 L 23.8,63.5 L 23.6,63.3 L 23.8,63.1 L 24.2,63.1 L 24.4,62.9 L 24.0,62.9 L 23.8,62.7 L 23.8,62.5 L 22.9,62.5 L 22.7,62.3 L 22.7,62.1 L 22.3,62.1 L 21.9,61.7 L 21.3,61.7 L 21.1,61.5 L 20.9,61.5 L 20.5,61.1 L 20.1,61.1 L 19.9,60.9 L 19.5,60.9 L 19.3,60.7 L 18.8,60.7 L 18.6,60.9 L 18.0,60.9 L 17.6,60.5 L 17.8,60.4 L 18.8,60.4 L 17.8,60.4 L 17.6,60.5 L 17.0,60.5 L 16.8,60.4 L 16.8,60.2 L 17.0,60.0 L 18.0,60.0 L 17.0,60.0 L 16.8,60.2 L 16.2,60.2 L 15.8,59.8 L 16.0,59.6 L 17.0,59.6 L 16.0,59.6 L 15.8,59.8 L 15.2,59.8 L 14.8,59.4 L 14.5,59.4 L 14.1,59.0 L 14.3,58.8 L 15.2,58.8 L 14.3,58.8 L 14.1,59.0 L 13.5,59.0 L 13.1,58.6 L 12.7,58.6 L 12.5,58.4 L 12.1,58.4 L 11.9,58.2 L 11.7,58.2 L 11.5,58.0 L 11.7,57.8 L 12.3,57.8 L 12.5,57.6 L 12.7,57.6 L 11.7,57.6 L 11.5,57.4 L 11.5,57.2 L 11.1,57.2 L 10.9,57.0 L 10.9,56.8 L 10.2,56.8 L 9.8,56.4 L 9.6,56.4 L 9.4,56.2 L 9.2,56.2 L 9.0,56.1 Z M 62.9,44.1 L 62.7,44.3 L 62.5,44.3 L 62.3,44.5 L 62.9,44.5 L 63.1,44.7 L 62.7,45.1 L 62.5,45.1 L 62.3,44.9 L 62.1,44.9 L 61.9,44.7 L 61.3,44.7 L 60.9,45.1 L 60.5,45.1 L 60.2,45.5 L 59.4,45.5 L 59.4,45.7 L 59.2,45.9 L 58.6,45.9 L 58.6,46.1 L 58.4,46.3 L 57.8,46.3 L 57.8,46.5 L 58.4,46.5 L 58.6,46.7 L 58.4,46.9 L 58.2,46.9 L 58.0,47.1 L 57.6,47.1 L 57.4,47.3 L 57.4,59.0 L 57.2,59.2 L 57.0,59.0 L 57.0,47.3 L 56.8,47.3 L 56.8,59.0 L 56.6,59.2 L 56.4,59.2 L 57.4,59.2 L 57.6,59.4 L 57.6,59.6 L 57.4,59.8 L 56.8,59.8 L 56.4,60.2 L 55.9,60.2 L 55.7,60.0 L 54.7,60.0 L 55.7,60.0 L 55.9,60.2 L 55.9,60.4 L 55.7,60.5 L 55.1,60.5 L 54.9,60.4 L 53.9,60.4 L 54.9,60.4 L 55.1,60.5 L 54.7,60.9 L 54.1,60.9 L 53.9,60.7 L 53.3,60.7 L 53.1,60.9 L 52.7,60.9 L 52.5,61.1 L 52.1,61.1 L 51.8,61.5 L 51.6,61.5 L 51.4,61.7 L 50.6,61.7 L 50.4,61.9 L 50.2,61.9 L 50.0,61.7 L 49.4,61.7 L 49.2,61.5 L 49.0,61.5 L 48.8,61.3 L 48.6,61.3 L 48.4,61.1 L 48.0,61.1 L 47.9,60.9 L 47.5,60.9 L 47.3,60.7 L 46.5,60.7 L 46.3,60.9 L 45.9,60.9 L 45.5,60.5 L 45.7,60.4 L 46.5,60.4 L 45.7,60.4 L 45.5,60.5 L 44.9,60.5 L 44.5,60.2 L 44.7,60.0 L 45.7,60.0 L 44.7,60.0 L 44.5,60.2 L 43.9,60.2 L 43.6,59.8 L 43.8,59.6 L 44.7,59.6 L 43.8,59.6 L 43.6,59.8 L 43.0,59.8 L 42.6,59.4 L 42.2,59.4 L 41.8,59.0 L 42.0,58.8 L 42.8,58.8 L 42.0,58.8 L 41.8,59.0 L 41.0,59.0 L 40.6,58.6 L 40.2,58.6 L 39.8,58.2 L 39.6,58.4 L 39.5,58.2 L 39.3,58.2 L 39.1,58.0 L 39.3,57.8 L 39.6,57.8 L 39.8,57.6 L 40.0,57.6 L 39.3,57.6 L 39.1,57.4 L 39.1,57.2 L 38.9,57.2 L 38.5,56.8 L 37.7,56.8 L 37.3,56.4 L 36.9,56.4 L 36.5,56.1 L 35.7,56.1 L 35.4,55.7 L 35.2,55.7 L 35.0,55.5 L 34.6,55.5 L 34.4,55.3 L 34.2,55.3 L 34.0,55.1 L 33.2,55.1 L 34.0,55.1 L 34.2,55.3 L 34.0,55.5 L 33.8,55.5 L 33.6,55.7 L 33.2,55.7 L 32.8,55.3 L 32.4,55.3 L 32.2,55.1 L 32.0,55.1 L 31.8,54.9 L 31.4,54.9 L 31.1,54.5 L 31.2,54.3 L 32.2,54.3 L 31.2,54.3 L 31.1,54.5 L 30.5,54.5 L 30.1,54.1 L 29.5,54.1 L 29.3,53.9 L 29.3,53.7 L 29.5,53.5 L 30.5,53.5 L 29.5,53.5 L 29.3,53.7 L 28.7,53.7 L 28.5,53.5 L 28.3,53.5 L 28.1,53.3 L 27.7,53.3 L 27.3,52.9 L 27.0,52.9 L 26.6,52.5 L 26.4,52.7 L 26.2,52.7 L 26.0,52.5 L 25.8,52.5 L 25.6,52.3 L 25.8,52.1 L 26.6,52.1 L 26.8,52.0 L 27.0,52.0 L 26.0,52.0 L 25.8,51.8 L 25.8,51.6 L 25.2,51.6 L 24.8,51.2 L 24.0,51.2 L 23.8,51.0 L 23.8,50.8 L 23.4,50.8 L 23.2,50.6 L 23.0,50.6 L 22.9,50.4 L 22.3,50.4 L 21.9,50.0 L 21.7,50.0 L 21.5,49.8 L 21.1,49.8 L 20.7,49.4 L 20.1,49.4 L 20.7,49.4 L 20.9,49.6 L 20.7,49.8 L 19.9,49.8 L 19.7,49.6 L 19.5,49.8 L 19.3,49.8 L 21.5,49.8 L 21.7,50.0 L 21.5,50.2 L 21.3,50.2 L 21.1,50.4 L 20.7,50.4 L 20.5,50.2 L 20.1,50.2 L 19.9,50.4 L 19.5,50.4 L 19.3,50.2 L 19.1,50.2 L 18.9,50.0 L 18.8,50.0 L 18.4,50.4 L 17.6,50.4 L 17.2,50.8 L 16.8,50.8 L 16.4,51.2 L 15.6,51.2 L 15.2,51.6 L 14.8,51.6 L 14.8,51.8 L 14.6,52.0 L 13.5,52.0 L 13.7,52.0 L 13.9,52.1 L 14.6,52.1 L 14.8,52.3 L 14.6,52.5 L 14.5,52.5 L 14.3,52.7 L 13.7,52.7 L 13.5,52.9 L 13.1,52.9 L 12.7,53.3 L 12.1,53.3 L 11.7,53.7 L 11.1,53.7 L 10.9,53.5 L 10.4,53.5 L 10.9,53.5 L 11.1,53.7 L 10.7,54.1 L 10.2,54.1 L 10.0,54.3 L 10.0,54.5 L 10.2,54.7 L 10.2,55.1 L 10.9,55.1 L 11.3,55.5 L 11.1,55.7 L 10.4,55.7 L 10.5,55.7 L 10.7,55.9 L 10.9,55.7 L 11.1,55.7 L 11.3,55.5 L 11.7,55.5 L 11.9,55.7 L 12.3,55.7 L 12.5,55.9 L 12.9,55.9 L 13.3,56.2 L 13.5,56.2 L 13.9,56.6 L 13.7,56.8 L 12.9,56.8 L 13.7,56.8 L 13.9,56.6 L 14.6,56.6 L 15.0,57.0 L 14.8,57.2 L 13.7,57.2 L 14.8,57.2 L 15.0,57.0 L 15.4,57.0 L 15.8,57.4 L 16.4,57.4 L 16.6,57.6 L 16.6,57.8 L 16.4,58.0 L 15.4,58.0 L 16.4,58.0 L 16.6,57.8 L 17.2,57.8 L 17.4,58.0 L 17.4,58.2 L 17.2,58.4 L 16.6,58.4 L 17.2,58.4 L 17.6,58.0 L 17.8,58.0 L 18.0,58.2 L 18.2,58.2 L 18.4,58.4 L 18.2,58.6 L 17.6,58.6 L 17.4,58.8 L 17.2,58.8 L 18.2,58.8 L 18.4,59.0 L 18.4,59.2 L 18.9,59.2 L 19.1,59.4 L 19.1,59.6 L 19.5,59.6 L 19.9,60.0 L 20.5,60.0 L 20.9,60.4 L 21.3,60.4 L 21.5,60.5 L 21.7,60.5 L 21.9,60.7 L 22.3,60.7 L 22.5,60.9 L 22.7,60.9 L 22.9,61.1 L 23.0,60.9 L 23.4,60.9 L 23.6,60.7 L 24.0,60.7 L 24.4,61.1 L 24.2,61.3 L 23.2,61.3 L 23.6,61.3 L 23.8,61.5 L 24.0,61.3 L 24.2,61.3 L 24.4,61.1 L 24.8,61.1 L 25.0,61.3 L 25.2,61.3 L 25.4,61.5 L 25.2,61.7 L 24.2,61.7 L 25.2,61.7 L 25.4,61.5 L 25.8,61.5 L 26.2,61.9 L 26.4,61.9 L 26.8,62.3 L 26.6,62.5 L 26.0,62.5 L 26.6,62.5 L 26.8,62.3 L 27.5,62.3 L 27.7,62.5 L 27.7,62.7 L 27.5,62.9 L 26.6,62.9 L 27.5,62.9 L 27.7,62.7 L 28.1,62.7 L 28.3,62.9 L 28.5,62.9 L 28.7,63.1 L 29.3,63.1 L 29.5,63.3 L 29.5,63.5 L 29.3,63.7 L 28.3,63.7 L 29.3,63.7 L 29.5,63.5 L 30.1,63.5 L 30.3,63.7 L 30.7,63.7 L 30.9,63.9 L 31.1,63.9 L 31.2,64.1 L 31.1,64.3 L 30.5,64.3 L 30.3,64.5 L 30.1,64.5 L 31.1,64.5 L 31.2,64.6 L 31.2,64.8 L 31.6,64.8 L 32.0,65.2 L 32.4,65.2 L 32.8,65.6 L 33.4,65.6 L 33.8,66.0 L 34.2,66.0 L 34.4,66.2 L 34.6,66.2 L 34.8,66.4 L 35.2,66.4 L 35.4,66.6 L 35.5,66.6 L 35.7,66.8 L 35.9,66.6 L 36.1,66.6 L 35.4,66.6 L 35.2,66.4 L 35.5,66.0 L 35.9,66.0 L 36.1,66.2 L 36.3,66.2 L 36.5,66.4 L 36.9,66.4 L 37.3,66.8 L 37.5,66.8 L 37.9,67.2 L 37.7,67.4 L 36.9,67.4 L 37.7,67.4 L 37.9,67.2 L 38.7,67.2 L 39.1,67.6 L 38.9,67.8 L 37.7,67.8 L 38.9,67.8 L 39.1,67.6 L 39.3,67.6 L 39.6,68.0 L 39.5,68.2 L 38.9,68.2 L 39.5,68.2 L 39.6,68.0 L 40.4,68.0 L 40.8,68.4 L 41.0,68.4 L 41.2,68.6 L 41.4,68.6 L 41.6,68.8 L 42.2,68.8 L 42.6,69.1 L 42.8,69.1 L 43.2,69.5 L 43.6,69.5 L 43.8,69.7 L 43.6,69.9 L 43.2,69.9 L 43.0,70.1 L 43.6,70.1 L 43.8,70.3 L 43.8,70.5 L 44.5,70.5 L 44.7,70.7 L 44.7,70.9 L 45.1,70.9 L 45.3,71.1 L 45.5,71.1 L 45.7,71.3 L 46.3,71.3 L 46.7,71.7 L 46.9,71.7 L 47.1,71.5 L 47.5,71.5 L 47.7,71.3 L 48.0,71.3 L 48.2,71.5 L 48.2,71.7 L 48.0,71.9 L 47.3,71.9 L 47.5,71.9 L 47.7,72.1 L 47.9,72.1 L 48.0,71.9 L 49.0,71.9 L 49.2,72.1 L 49.0,72.3 L 48.2,72.3 L 49.0,72.3 L 49.2,72.1 L 49.8,72.1 L 50.0,72.3 L 50.6,72.3 L 50.8,72.1 L 51.4,72.1 L 51.6,72.3 L 52.3,72.3 L 51.6,72.3 L 51.4,72.1 L 51.6,71.9 L 52.0,71.9 L 52.1,71.7 L 52.3,71.9 L 52.5,71.9 L 52.7,72.1 L 52.9,72.1 L 53.1,71.9 L 53.3,71.9 L 53.5,71.7 L 53.9,71.7 L 54.3,71.3 L 54.9,71.3 L 55.3,70.9 L 55.7,70.9 L 56.1,70.5 L 56.6,70.5 L 56.6,70.3 L 56.8,70.1 L 57.6,70.1 L 57.4,69.9 L 56.8,69.9 L 56.6,69.7 L 56.8,69.5 L 57.2,69.5 L 57.4,69.3 L 57.6,69.3 L 58.0,68.9 L 58.2,68.9 L 58.4,69.1 L 58.4,69.3 L 59.2,69.3 L 58.6,69.3 L 58.2,68.9 L 58.4,68.8 L 58.8,68.8 L 59.0,68.6 L 59.2,68.6 L 59.4,68.4 L 59.8,68.4 L 60.0,68.6 L 61.1,68.6 L 60.0,68.6 L 59.8,68.4 L 60.2,68.0 L 60.7,68.0 L 60.9,68.2 L 61.7,68.2 L 60.9,68.2 L 60.7,68.0 L 61.1,67.6 L 61.3,67.6 L 61.7,67.2 L 62.5,67.2 L 62.7,67.4 L 63.3,67.4 L 62.7,67.4 L 62.5,67.2 L 62.9,66.8 L 63.3,66.8 L 63.7,67.2 L 63.9,67.0 L 64.3,67.0 L 63.5,67.0 L 63.3,66.8 L 63.3,66.6 L 63.5,66.4 L 63.9,66.4 L 64.1,66.2 L 64.3,66.2 L 64.5,66.0 L 64.8,66.0 L 65.2,66.4 L 65.0,66.6 L 64.3,66.6 L 65.0,66.6 L 65.2,66.4 L 65.6,66.4 L 65.8,66.2 L 66.2,66.2 L 66.4,66.0 L 66.6,66.0 L 67.0,65.6 L 67.6,65.6 L 68.0,65.2 L 68.6,65.2 L 68.6,65.0 L 68.8,64.8 L 69.3,64.8 L 69.1,64.6 L 68.8,64.6 L 68.6,64.5 L 68.8,64.3 L 69.3,64.3 L 69.5,64.5 L 70.3,64.5 L 70.1,64.3 L 69.3,64.3 L 69.1,64.1 L 69.3,63.9 L 69.7,63.9 L 69.9,63.7 L 70.3,63.7 L 70.5,63.5 L 70.9,63.5 L 71.1,63.7 L 72.1,63.7 L 71.1,63.7 L 70.9,63.5 L 70.9,63.3 L 71.1,63.1 L 71.9,63.1 L 72.1,63.3 L 72.9,63.3 L 72.1,63.3 L 71.9,63.1 L 72.3,62.7 L 72.7,62.7 L 72.9,62.9 L 73.8,62.9 L 72.9,62.9 L 72.7,62.7 L 72.7,62.5 L 72.9,62.3 L 73.6,62.3 L 73.8,62.5 L 74.6,62.5 L 73.8,62.5 L 73.6,62.3 L 74.0,61.9 L 74.4,61.9 L 74.6,62.1 L 75.6,62.1 L 74.6,62.1 L 74.4,61.9 L 74.4,61.7 L 74.6,61.5 L 75.0,61.5 L 75.2,61.3 L 75.4,61.3 L 75.6,61.1 L 76.0,61.1 L 76.4,60.7 L 77.0,60.7 L 77.1,60.9 L 77.9,60.9 L 78.1,60.7 L 78.5,60.7 L 78.7,60.5 L 78.9,60.5 L 79.1,60.4 L 79.5,60.4 L 79.9,60.0 L 80.5,60.0 L 80.9,59.6 L 81.4,59.6 L 81.4,59.4 L 81.6,59.2 L 82.0,59.2 L 82.0,59.0 L 82.2,58.8 L 83.2,58.8 L 83.0,58.8 L 82.8,58.6 L 82.2,58.6 L 82.0,58.4 L 82.2,58.2 L 82.4,58.2 L 82.6,58.0 L 82.8,58.2 L 83.2,57.8 L 83.8,57.8 L 84.0,58.0 L 85.0,58.0 L 84.0,58.0 L 83.8,57.8 L 83.8,57.6 L 84.0,57.4 L 84.6,57.4 L 84.8,57.2 L 85.0,57.2 L 85.2,57.0 L 85.4,57.0 L 85.7,56.6 L 86.5,56.6 L 86.7,56.8 L 87.5,56.8 L 86.7,56.8 L 86.5,56.6 L 86.9,56.2 L 87.3,56.2 L 87.5,56.4 L 88.5,56.4 L 87.5,56.4 L 87.3,56.2 L 87.3,56.1 L 87.5,55.9 L 88.1,55.9 L 88.3,56.1 L 89.3,56.1 L 89.5,55.9 L 89.6,55.9 L 89.8,55.7 L 90.0,55.7 L 89.3,55.7 L 89.1,55.5 L 89.5,55.1 L 90.2,55.1 L 90.2,54.3 L 90.4,54.1 L 90.4,53.9 L 90.2,54.1 L 89.8,54.1 L 89.5,53.7 L 88.9,53.7 L 88.5,53.3 L 87.9,53.3 L 87.7,53.1 L 87.7,52.9 L 87.9,52.7 L 88.9,52.7 L 87.9,52.7 L 87.7,52.9 L 87.3,52.9 L 87.1,52.7 L 86.3,52.7 L 85.9,52.3 L 86.1,52.1 L 86.9,52.1 L 87.1,52.0 L 86.1,52.0 L 85.9,51.8 L 85.9,51.6 L 85.4,51.6 L 85.0,51.2 L 84.4,51.2 L 84.0,50.8 L 83.6,50.8 L 83.2,50.4 L 82.4,50.4 L 82.2,50.2 L 82.0,50.2 L 81.8,50.0 L 81.6,50.0 L 81.4,49.8 L 80.3,49.8 L 80.1,50.0 L 79.7,50.0 L 79.3,49.6 L 79.5,49.4 L 80.7,49.4 L 80.1,49.4 L 79.9,49.2 L 79.7,49.4 L 79.5,49.4 L 79.3,49.6 L 78.9,49.6 L 78.7,49.4 L 78.5,49.4 L 78.3,49.2 L 78.5,49.0 L 79.5,49.0 L 78.5,49.0 L 78.3,49.2 L 77.5,49.2 L 77.3,49.0 L 77.3,48.8 L 77.5,48.6 L 78.7,48.6 L 77.5,48.6 L 77.3,48.8 L 76.8,48.8 L 76.4,48.4 L 76.6,48.2 L 77.5,48.2 L 76.6,48.2 L 76.4,48.4 L 75.6,48.4 L 75.2,48.0 L 74.6,48.0 L 74.2,47.7 L 73.8,47.7 L 73.4,47.3 L 73.0,47.3 L 72.7,46.9 L 72.5,47.1 L 72.3,46.9 L 71.9,46.9 L 71.7,46.7 L 71.9,46.5 L 72.9,46.5 L 73.0,46.3 L 71.9,46.3 L 71.7,46.1 L 71.7,45.9 L 71.1,45.9 L 70.9,45.7 L 70.9,45.5 L 69.9,45.5 L 69.5,45.1 L 69.1,45.1 L 68.8,44.7 L 68.2,44.7 L 68.0,44.5 L 67.8,44.5 L 67.6,44.3 L 67.4,44.3 L 67.2,44.5 L 67.0,44.5 L 66.8,44.7 L 66.4,44.7 L 66.2,44.5 L 66.0,44.5 L 65.8,44.3 L 66.0,44.1 L 67.0,44.1 L 66.0,44.1 L 65.8,44.3 L 64.1,44.3 L 63.9,44.1 Z M 7.4,26.8 L 7.4,40.6 L 7.4,40.4 L 7.6,40.2 L 7.6,27.1 L 7.4,27.0 Z M 8.4,26.6 L 8.2,26.8 L 8.2,40.6 L 8.4,40.8 L 8.8,40.8 L 9.2,41.2 L 10.0,41.2 L 10.2,41.4 L 10.2,41.6 L 10.0,41.8 L 8.8,41.8 L 10.0,41.8 L 10.2,41.6 L 10.7,41.6 L 10.9,41.8 L 10.7,42.0 L 10.4,42.0 L 10.2,42.2 L 10.7,42.2 L 10.9,42.4 L 10.9,42.6 L 11.7,42.6 L 12.1,43.0 L 12.5,43.0 L 12.9,43.4 L 13.7,43.4 L 14.1,43.8 L 14.5,43.8 L 14.6,43.9 L 14.8,43.9 L 15.0,44.1 L 15.2,44.1 L 15.4,44.3 L 15.8,44.3 L 16.0,44.5 L 16.4,44.5 L 16.6,44.7 L 17.4,44.7 L 16.6,44.7 L 16.4,44.5 L 16.8,44.1 L 17.2,44.1 L 17.4,44.3 L 17.6,44.3 L 17.8,44.5 L 18.4,44.5 L 18.8,44.9 L 18.6,45.1 L 17.4,45.1 L 18.6,45.1 L 18.8,44.9 L 19.1,44.9 L 19.3,45.1 L 19.5,45.1 L 19.7,45.3 L 19.5,45.5 L 18.6,45.5 L 19.5,45.5 L 19.7,45.3 L 20.3,45.3 L 20.7,45.7 L 20.9,45.7 L 21.1,45.9 L 21.3,45.9 L 21.5,46.1 L 22.3,46.1 L 22.5,46.3 L 22.5,46.5 L 22.3,46.7 L 21.1,46.7 L 22.3,46.7 L 22.5,46.5 L 23.0,46.5 L 23.2,46.7 L 23.4,46.7 L 23.6,46.9 L 24.2,46.9 L 24.4,47.1 L 24.4,47.3 L 25.0,47.3 L 25.2,47.5 L 25.0,47.7 L 24.4,47.7 L 24.2,47.9 L 24.8,47.9 L 25.0,47.7 L 25.2,47.7 L 25.4,47.5 L 25.8,47.5 L 26.0,47.7 L 26.2,47.7 L 26.4,47.9 L 26.2,48.0 L 25.2,48.0 L 25.0,48.2 L 26.0,48.2 L 26.2,48.4 L 26.2,48.6 L 26.8,48.6 L 27.0,48.8 L 27.0,49.0 L 27.5,49.0 L 27.9,49.4 L 28.7,49.4 L 29.1,49.8 L 29.3,49.8 L 29.5,50.0 L 30.1,50.0 L 30.3,50.2 L 30.5,50.2 L 30.7,50.4 L 31.6,50.4 L 30.7,50.4 L 30.5,50.2 L 30.7,50.0 L 30.9,50.0 L 31.1,49.8 L 31.4,49.8 L 31.6,50.0 L 31.8,50.0 L 32.0,50.2 L 32.6,50.2 L 32.8,50.4 L 32.8,50.6 L 32.6,50.8 L 31.6,50.8 L 32.6,50.8 L 32.8,50.6 L 33.4,50.6 L 33.6,50.8 L 33.8,50.8 L 34.0,51.0 L 34.4,51.0 L 34.8,51.4 L 34.6,51.6 L 33.6,51.6 L 34.6,51.6 L 34.8,51.4 L 35.2,51.4 L 35.4,51.6 L 35.5,51.6 L 35.7,51.8 L 36.5,51.8 L 36.9,52.1 L 37.3,52.1 L 37.5,52.3 L 37.7,52.3 L 37.9,52.5 L 38.5,52.5 L 38.9,52.9 L 39.3,52.9 L 39.5,53.1 L 39.3,53.3 L 38.7,53.3 L 38.5,53.5 L 39.1,53.5 L 39.3,53.7 L 39.3,53.9 L 40.2,53.9 L 40.4,54.1 L 40.4,54.3 L 40.8,54.3 L 41.2,54.7 L 41.6,54.7 L 41.8,54.5 L 42.0,54.5 L 42.2,54.3 L 42.8,54.3 L 43.2,54.7 L 43.0,54.9 L 42.0,54.9 L 42.2,55.1 L 42.8,55.1 L 43.0,55.3 L 43.9,55.3 L 44.1,55.1 L 44.7,55.1 L 45.1,55.5 L 45.5,55.5 L 45.7,55.7 L 45.9,55.7 L 46.1,55.9 L 46.7,55.9 L 47.1,56.2 L 47.3,56.2 L 47.5,56.4 L 47.7,56.4 L 47.9,56.6 L 48.4,56.6 L 48.8,57.0 L 48.6,57.2 L 47.5,57.2 L 48.6,57.2 L 48.8,57.0 L 49.2,57.0 L 49.4,57.2 L 49.6,57.2 L 49.8,57.4 L 50.4,57.4 L 50.6,57.2 L 50.6,43.6 L 50.4,43.4 L 50.4,43.2 L 49.8,43.2 L 49.4,42.8 L 49.6,42.6 L 50.4,42.6 L 49.6,42.6 L 49.4,42.8 L 48.8,42.8 L 48.6,42.6 L 48.6,42.4 L 48.8,42.2 L 49.8,42.2 L 48.8,42.2 L 48.6,42.4 L 48.2,42.4 L 47.9,42.0 L 47.1,42.0 L 46.7,41.6 L 46.1,41.6 L 45.9,41.4 L 45.9,41.2 L 45.7,41.4 L 45.5,41.4 L 45.3,41.2 L 45.1,41.2 L 44.9,41.0 L 45.1,40.8 L 45.9,40.8 L 46.1,40.6 L 45.1,40.6 L 44.9,40.4 L 44.9,40.2 L 44.3,40.2 L 43.9,39.8 L 43.4,39.8 L 43.0,39.5 L 42.6,39.5 L 42.2,39.1 L 41.8,39.1 L 41.6,38.9 L 41.2,38.9 L 41.0,38.7 L 40.6,38.7 L 40.4,38.5 L 39.5,38.5 L 39.3,38.7 L 38.7,38.7 L 38.3,38.3 L 38.5,38.1 L 39.6,38.1 L 38.5,38.1 L 38.3,38.3 L 37.7,38.3 L 37.3,37.9 L 37.5,37.7 L 38.5,37.7 L 37.5,37.7 L 37.3,37.9 L 36.7,37.9 L 36.3,37.5 L 36.5,37.3 L 37.7,37.3 L 36.5,37.3 L 36.3,37.5 L 35.9,37.5 L 35.5,37.1 L 34.8,37.1 L 34.6,36.9 L 34.6,36.7 L 34.8,36.5 L 35.9,36.5 L 34.8,36.5 L 34.6,36.7 L 34.0,36.7 L 33.6,36.3 L 32.8,36.3 L 32.6,36.1 L 32.6,35.9 L 32.8,35.7 L 34.0,35.7 L 32.8,35.7 L 32.6,35.9 L 32.0,35.9 L 31.8,35.7 L 32.0,35.5 L 32.4,35.5 L 32.6,35.4 L 32.8,35.4 L 32.0,35.4 L 31.8,35.2 L 31.8,35.0 L 30.9,35.0 L 30.7,34.8 L 30.7,34.6 L 30.1,34.6 L 29.7,34.2 L 29.1,34.2 L 28.7,33.8 L 28.3,33.8 L 28.1,33.6 L 27.9,33.6 L 27.7,33.4 L 27.5,33.4 L 27.3,33.2 L 27.0,33.2 L 26.8,33.0 L 26.6,33.0 L 26.4,33.2 L 26.2,33.2 L 26.0,33.4 L 25.6,33.4 L 25.4,33.2 L 25.2,33.2 L 25.0,33.0 L 25.2,32.8 L 26.2,32.8 L 25.2,32.8 L 25.0,33.0 L 24.4,33.0 L 24.0,32.6 L 23.6,32.6 L 23.4,32.4 L 23.2,32.4 L 23.0,32.2 L 23.2,32.0 L 24.4,32.0 L 23.2,32.0 L 23.0,32.2 L 22.5,32.2 L 22.1,31.8 L 21.9,31.8 L 21.7,31.6 L 21.5,31.6 L 21.3,31.4 L 20.7,31.4 L 20.3,31.1 L 20.5,30.9 L 21.7,30.9 L 20.5,30.9 L 20.3,31.1 L 19.9,31.1 L 19.7,30.9 L 19.5,30.9 L 19.3,30.7 L 18.8,30.7 L 18.4,30.3 L 17.8,30.3 L 17.6,30.1 L 17.8,29.9 L 18.4,29.9 L 18.6,29.7 L 18.0,29.7 L 17.8,29.5 L 17.8,29.3 L 16.8,29.3 L 16.6,29.1 L 16.6,28.9 L 16.2,28.9 L 15.8,28.5 L 15.4,28.5 L 15.2,28.3 L 15.0,28.3 L 14.8,28.1 L 14.1,28.1 L 13.7,27.7 L 13.5,27.9 L 13.1,27.9 L 12.9,28.1 L 12.1,28.1 L 11.9,27.9 L 11.9,27.7 L 12.1,27.5 L 13.3,27.5 L 12.7,27.5 L 12.5,27.3 L 12.3,27.3 L 12.1,27.1 L 11.1,27.1 L 12.1,27.1 L 12.3,27.3 L 12.1,27.5 L 11.9,27.5 L 11.7,27.7 L 11.3,27.7 L 11.1,27.5 L 10.9,27.5 L 10.7,27.3 L 10.4,27.3 L 10.0,27.0 L 10.2,26.8 L 11.3,26.8 L 10.2,26.8 L 10.0,27.0 L 9.8,27.0 L 9.6,26.8 L 9.4,26.8 L 9.2,26.6 Z M 49.2,9.6 L 48.8,10.0 L 48.2,10.0 L 48.0,9.8 L 46.7,9.8 L 48.0,9.8 L 48.2,10.0 L 47.9,10.4 L 47.1,10.4 L 46.9,10.5 L 46.7,10.5 L 46.5,10.7 L 46.3,10.7 L 45.9,11.1 L 45.3,11.1 L 45.1,10.9 L 43.9,10.9 L 43.8,11.1 L 43.2,11.1 L 43.0,11.3 L 42.8,11.3 L 43.9,11.3 L 44.1,11.5 L 43.8,11.9 L 43.2,11.9 L 43.0,11.7 L 42.6,11.7 L 42.4,11.5 L 42.0,11.5 L 41.6,11.9 L 40.8,11.9 L 40.4,12.3 L 39.8,12.3 L 39.8,12.5 L 39.6,12.7 L 38.7,12.7 L 38.7,12.9 L 38.5,13.1 L 37.7,13.1 L 37.9,13.3 L 38.7,13.3 L 38.9,13.5 L 38.7,13.7 L 37.9,13.7 L 37.5,14.1 L 36.9,14.1 L 36.7,13.9 L 35.5,13.9 L 36.7,13.9 L 36.9,14.1 L 36.9,14.3 L 36.7,14.5 L 36.1,14.5 L 35.9,14.6 L 35.7,14.6 L 35.5,14.8 L 35.0,14.8 L 34.8,14.6 L 33.4,14.6 L 34.8,14.6 L 35.0,14.8 L 34.6,15.2 L 34.0,15.2 L 33.8,15.4 L 33.6,15.4 L 33.4,15.6 L 33.0,15.6 L 32.8,15.4 L 31.4,15.4 L 32.8,15.4 L 33.0,15.6 L 32.6,16.0 L 31.8,16.0 L 31.6,16.2 L 31.4,16.2 L 31.2,16.4 L 30.9,16.4 L 30.7,16.2 L 29.5,16.2 L 30.7,16.2 L 30.9,16.4 L 30.5,16.8 L 30.1,16.8 L 29.9,17.0 L 29.5,17.0 L 29.3,17.2 L 28.9,17.2 L 28.5,16.8 L 28.7,16.6 L 29.7,16.6 L 28.7,16.6 L 28.5,16.8 L 27.9,16.8 L 27.7,17.0 L 27.3,17.0 L 27.1,17.2 L 26.8,17.2 L 26.4,17.6 L 25.8,17.6 L 25.6,17.8 L 25.4,17.8 L 25.2,18.0 L 24.6,18.0 L 24.6,18.2 L 24.4,18.4 L 23.6,18.4 L 23.8,18.6 L 23.6,18.8 L 22.5,18.8 L 22.7,18.8 L 22.9,18.9 L 23.6,18.9 L 23.8,19.1 L 23.6,19.3 L 23.2,19.3 L 23.0,19.5 L 22.7,19.5 L 22.5,19.7 L 21.9,19.7 L 21.5,20.1 L 20.7,20.1 L 20.3,20.5 L 19.7,20.5 L 19.5,20.3 L 18.2,20.3 L 19.5,20.3 L 19.7,20.5 L 19.7,20.7 L 19.5,20.9 L 18.6,20.9 L 18.4,20.7 L 17.4,20.7 L 18.4,20.7 L 18.6,20.9 L 18.2,21.3 L 17.8,21.3 L 17.4,21.7 L 16.8,21.7 L 16.6,21.5 L 15.4,21.5 L 16.6,21.5 L 16.8,21.7 L 16.6,21.9 L 16.4,21.9 L 16.2,22.1 L 15.6,22.1 L 15.4,21.9 L 15.2,21.9 L 15.0,21.7 L 14.8,21.9 L 14.3,21.9 L 15.4,21.9 L 15.6,22.1 L 15.2,22.5 L 14.6,22.5 L 14.5,22.3 L 14.1,22.3 L 13.9,22.1 L 13.7,22.3 L 13.5,22.3 L 13.3,22.5 L 12.7,22.5 L 12.5,22.7 L 12.1,22.7 L 11.9,22.9 L 11.5,22.9 L 11.1,23.2 L 10.7,23.2 L 10.7,23.4 L 11.3,23.4 L 11.5,23.6 L 11.3,23.8 L 11.1,23.8 L 10.9,24.0 L 10.5,24.0 L 10.5,24.8 L 11.1,24.8 L 11.3,25.0 L 11.5,25.0 L 11.7,25.2 L 11.5,25.4 L 10.9,25.4 L 10.7,25.6 L 11.5,25.6 L 11.7,25.8 L 11.7,26.0 L 12.1,26.0 L 12.5,26.4 L 13.3,26.4 L 13.7,26.8 L 13.9,26.8 L 14.1,26.6 L 14.3,26.6 L 14.5,26.4 L 15.0,26.4 L 15.2,26.6 L 15.4,26.6 L 15.6,26.8 L 15.4,27.0 L 14.3,27.0 L 14.5,27.1 L 15.2,27.1 L 15.6,27.5 L 15.8,27.5 L 16.0,27.3 L 16.4,27.3 L 16.6,27.1 L 17.2,27.1 L 17.6,27.5 L 18.0,27.5 L 18.4,27.9 L 18.2,28.1 L 17.4,28.1 L 18.2,28.1 L 18.4,27.9 L 18.8,27.9 L 19.1,28.3 L 18.9,28.5 L 18.2,28.5 L 19.1,28.5 L 19.3,28.3 L 19.9,28.3 L 20.1,28.5 L 20.1,28.7 L 19.9,28.9 L 18.9,28.9 L 19.9,28.9 L 20.1,28.7 L 20.7,28.7 L 21.1,29.1 L 20.9,29.3 L 19.9,29.3 L 20.9,29.3 L 21.1,29.1 L 21.9,29.1 L 22.3,29.5 L 22.9,29.5 L 23.0,29.7 L 23.0,29.9 L 22.9,30.1 L 21.9,30.1 L 22.9,30.1 L 23.0,29.9 L 23.8,29.9 L 24.0,30.1 L 24.0,30.3 L 23.8,30.5 L 22.9,30.5 L 23.8,30.5 L 24.0,30.3 L 24.4,30.3 L 24.8,30.7 L 25.0,30.5 L 25.4,30.5 L 25.6,30.7 L 25.8,30.7 L 26.0,30.9 L 25.8,31.1 L 24.8,31.1 L 24.6,31.2 L 25.6,31.2 L 26.0,30.9 L 26.2,31.1 L 26.6,31.1 L 26.8,31.2 L 26.6,31.4 L 26.0,31.4 L 25.8,31.6 L 26.4,31.6 L 26.6,31.8 L 26.6,32.0 L 27.3,32.0 L 27.7,32.4 L 28.1,32.4 L 28.3,32.6 L 28.5,32.6 L 28.7,32.8 L 29.3,32.8 L 29.5,33.0 L 29.7,33.0 L 29.9,33.2 L 30.1,33.0 L 30.3,33.0 L 30.5,32.8 L 31.1,32.8 L 31.4,33.2 L 31.2,33.4 L 30.3,33.4 L 31.2,33.4 L 31.4,33.2 L 32.0,33.2 L 32.4,33.6 L 32.2,33.8 L 31.1,33.8 L 32.2,33.8 L 32.4,33.6 L 33.0,33.6 L 33.4,34.0 L 33.2,34.2 L 32.2,34.2 L 33.2,34.2 L 33.4,34.0 L 34.0,34.0 L 34.4,34.4 L 34.2,34.6 L 33.0,34.6 L 34.2,34.6 L 34.4,34.4 L 35.0,34.4 L 35.4,34.8 L 36.1,34.8 L 36.3,35.0 L 36.3,35.2 L 36.1,35.4 L 35.0,35.4 L 36.1,35.4 L 36.3,35.2 L 36.7,35.2 L 36.9,35.4 L 37.1,35.4 L 37.3,35.5 L 37.9,35.5 L 38.1,35.7 L 38.3,35.7 L 38.5,35.9 L 38.7,35.9 L 38.9,36.1 L 38.7,36.3 L 38.5,36.3 L 38.3,36.5 L 38.1,36.5 L 38.7,36.5 L 38.9,36.7 L 38.9,36.9 L 39.8,36.9 L 40.0,37.1 L 40.0,37.3 L 40.4,37.3 L 40.8,37.7 L 41.6,37.7 L 42.0,38.1 L 42.4,38.1 L 42.6,38.3 L 42.8,38.3 L 43.0,38.5 L 43.4,38.5 L 43.6,38.7 L 43.8,38.7 L 43.9,38.9 L 44.1,38.9 L 44.3,38.7 L 44.5,38.7 L 44.7,38.5 L 45.1,38.5 L 45.3,38.7 L 45.5,38.7 L 45.7,38.9 L 46.3,38.9 L 46.7,39.3 L 46.5,39.5 L 45.3,39.5 L 46.5,39.5 L 46.7,39.3 L 47.3,39.3 L 47.7,39.6 L 47.5,39.8 L 46.5,39.8 L 47.5,39.8 L 47.7,39.6 L 48.2,39.6 L 48.6,40.0 L 49.2,40.0 L 49.4,40.2 L 49.6,40.2 L 49.8,40.4 L 51.0,40.4 L 51.4,40.0 L 52.0,40.0 L 52.1,40.2 L 53.3,40.2 L 52.1,40.2 L 52.0,40.0 L 52.3,39.6 L 52.9,39.6 L 53.1,39.8 L 54.1,39.8 L 53.1,39.8 L 52.9,39.6 L 53.1,39.5 L 53.3,39.5 L 53.5,39.3 L 53.9,39.3 L 54.1,39.5 L 55.3,39.5 L 54.1,39.5 L 53.9,39.3 L 54.3,38.9 L 54.9,38.9 L 55.1,39.1 L 56.1,39.1 L 56.2,38.9 L 56.4,38.9 L 56.6,38.7 L 56.8,38.7 L 57.0,38.5 L 57.6,38.5 L 57.8,38.3 L 58.0,38.3 L 58.2,38.1 L 58.6,38.1 L 59.0,37.7 L 59.8,37.7 L 59.8,37.5 L 58.8,37.5 L 58.6,37.3 L 58.8,37.1 L 59.0,37.1 L 59.2,36.9 L 59.6,36.9 L 59.8,37.1 L 60.0,37.1 L 60.2,37.3 L 60.5,37.3 L 60.5,37.1 L 60.7,36.9 L 61.7,36.9 L 61.5,36.7 L 60.7,36.7 L 60.5,36.5 L 60.7,36.3 L 60.9,36.3 L 61.1,36.1 L 61.7,36.1 L 61.9,36.3 L 61.9,36.5 L 62.5,36.5 L 62.3,36.5 L 62.1,36.3 L 61.9,36.3 L 61.7,36.1 L 61.9,35.9 L 62.3,35.9 L 62.5,36.1 L 63.7,36.1 L 62.5,36.1 L 62.3,35.9 L 62.3,35.7 L 62.5,35.5 L 63.3,35.5 L 63.5,35.4 L 63.7,35.4 L 63.9,35.2 L 64.1,35.2 L 64.5,34.8 L 65.0,34.8 L 65.2,34.6 L 65.4,34.6 L 65.6,34.4 L 66.0,34.4 L 66.4,34.0 L 67.0,34.0 L 67.2,34.2 L 68.2,34.2 L 67.2,34.2 L 67.0,34.0 L 67.4,33.6 L 68.0,33.6 L 68.2,33.8 L 68.4,33.8 L 68.6,34.0 L 68.8,33.8 L 69.3,33.8 L 68.2,33.8 L 68.0,33.6 L 68.4,33.2 L 68.9,33.2 L 69.1,33.4 L 70.1,33.4 L 69.1,33.4 L 68.9,33.2 L 69.1,33.0 L 69.3,33.0 L 69.5,32.8 L 69.9,32.8 L 70.1,33.0 L 70.3,33.0 L 70.5,33.2 L 70.7,33.0 L 70.9,33.0 L 71.1,32.8 L 71.7,32.8 L 71.9,32.6 L 72.1,32.6 L 72.3,32.4 L 72.7,32.4 L 73.0,32.0 L 73.8,32.0 L 73.8,31.8 L 74.0,31.6 L 74.6,31.6 L 74.6,31.4 L 74.8,31.2 L 76.0,31.2 L 75.8,31.2 L 75.6,31.1 L 74.8,31.1 L 74.6,30.9 L 74.8,30.7 L 75.0,30.7 L 75.2,30.5 L 75.8,30.5 L 76.0,30.3 L 76.4,30.3 L 76.8,29.9 L 77.1,29.9 L 77.3,29.7 L 77.5,29.7 L 77.7,29.5 L 78.3,29.5 L 78.5,29.7 L 79.5,29.7 L 78.5,29.7 L 78.3,29.5 L 78.3,29.3 L 78.5,29.1 L 79.1,29.1 L 79.3,28.9 L 79.5,28.9 L 79.7,28.7 L 80.1,28.7 L 80.3,28.9 L 81.4,28.9 L 80.3,28.9 L 80.1,28.7 L 80.5,28.3 L 81.1,28.3 L 81.2,28.1 L 81.4,28.1 L 81.6,27.9 L 82.0,27.9 L 82.2,28.1 L 83.0,28.1 L 82.2,28.1 L 82.0,27.9 L 82.4,27.5 L 82.8,27.5 L 83.0,27.7 L 83.2,27.7 L 83.4,27.9 L 83.6,27.9 L 83.8,27.7 L 84.2,27.7 L 83.0,27.7 L 82.8,27.5 L 83.2,27.1 L 83.8,27.1 L 84.0,27.3 L 84.4,27.3 L 84.6,27.5 L 84.8,27.3 L 85.0,27.3 L 85.2,27.1 L 85.7,27.1 L 85.9,27.0 L 86.1,27.0 L 86.3,26.8 L 86.7,26.8 L 87.1,26.4 L 87.9,26.4 L 88.3,26.0 L 88.7,26.0 L 88.7,25.8 L 88.9,25.6 L 89.6,25.6 L 89.5,25.4 L 88.9,25.4 L 88.7,25.2 L 88.9,25.0 L 89.3,25.0 L 89.5,24.8 L 90.0,24.8 L 90.0,23.8 L 89.8,24.0 L 89.5,24.0 L 89.1,23.6 L 89.3,23.4 L 89.8,23.4 L 89.6,23.2 L 89.5,23.2 L 89.1,22.9 L 88.5,22.9 L 88.3,22.7 L 88.1,22.7 L 87.9,22.5 L 87.3,22.5 L 87.1,22.3 L 86.1,22.3 L 85.9,22.5 L 85.4,22.5 L 85.0,22.1 L 85.2,21.9 L 86.3,21.9 L 85.9,21.9 L 85.7,21.7 L 85.4,21.7 L 85.2,21.5 L 84.2,21.5 L 85.2,21.5 L 85.4,21.7 L 85.0,22.1 L 84.6,22.1 L 84.4,21.9 L 84.0,21.9 L 83.8,21.7 L 83.2,21.7 L 82.8,21.3 L 82.4,21.3 L 82.0,20.9 L 82.2,20.7 L 83.2,20.7 L 82.2,20.7 L 82.0,20.9 L 81.2,20.9 L 80.9,20.5 L 81.1,20.3 L 82.4,20.3 L 81.1,20.3 L 80.9,20.5 L 80.3,20.5 L 80.1,20.3 L 79.9,20.3 L 79.7,20.1 L 78.9,20.1 L 78.7,19.9 L 78.7,19.7 L 78.9,19.5 L 80.1,19.5 L 78.9,19.5 L 78.7,19.7 L 78.1,19.7 L 77.9,19.5 L 77.3,19.5 L 77.1,19.3 L 77.0,19.3 L 76.8,19.1 L 77.0,18.9 L 77.5,18.9 L 77.7,18.8 L 77.9,18.8 L 77.0,18.8 L 76.8,18.6 L 76.8,18.4 L 76.2,18.4 L 76.0,18.2 L 76.0,18.0 L 75.2,18.0 L 74.8,17.6 L 74.0,17.6 L 73.6,17.2 L 73.2,17.2 L 73.0,17.0 L 72.7,17.0 L 72.5,16.8 L 72.1,16.8 L 71.9,16.6 L 70.9,16.6 L 70.7,16.8 L 69.9,16.8 L 69.5,16.4 L 69.7,16.2 L 71.1,16.2 L 70.5,16.2 L 70.3,16.0 L 70.1,16.0 L 69.9,15.8 L 69.1,15.8 L 69.9,15.8 L 70.1,16.0 L 69.9,16.2 L 69.7,16.2 L 69.5,16.4 L 69.3,16.4 L 69.1,16.2 L 68.9,16.2 L 68.8,16.0 L 68.0,16.0 L 67.6,15.6 L 67.8,15.4 L 69.1,15.4 L 67.8,15.4 L 67.6,15.6 L 67.2,15.6 L 67.0,15.4 L 66.8,15.4 L 66.6,15.2 L 65.8,15.2 L 65.6,15.0 L 65.6,14.8 L 65.8,14.6 L 67.0,14.6 L 65.8,14.6 L 65.6,14.8 L 64.8,14.8 L 64.5,14.5 L 63.7,14.5 L 63.3,14.1 L 62.9,14.1 L 62.5,13.7 L 61.9,13.7 L 61.7,13.5 L 61.9,13.3 L 62.7,13.3 L 62.9,13.1 L 61.9,13.1 L 61.7,12.9 L 61.7,12.7 L 60.9,12.7 L 60.5,12.3 L 60.0,12.3 L 59.6,11.9 L 58.8,11.9 L 58.4,11.5 L 58.0,11.5 L 57.8,11.3 L 57.2,11.3 L 57.0,11.1 L 56.6,11.1 L 56.4,10.9 L 55.3,10.9 L 55.1,11.1 L 54.5,11.1 L 54.1,10.7 L 53.9,10.7 L 53.7,10.5 L 53.5,10.5 L 53.3,10.4 L 52.5,10.4 L 52.1,10.0 L 51.8,10.0 L 51.6,9.8 L 51.4,9.8 L 51.2,9.6 Z" fill="#FF5C00"/>
</svg>